<svg xmlns="http://www.w3.org/2000/svg" data-name="Layer 1" viewBox="0 0 32 32"><path fill="#231f20" d="M25.518 13.396a.484.484 0 0 0-.032-.09.314.314 0 0 0-.104-.157.483.483 0 0 0-.068-.064.494.494 0 0 0-.092-.044.47.47 0 0 0-.07-.033l-2.431-.608a5.464 5.464 0 0 0-2.28-.07l-1.556-4.388a3.497 3.497 0 0 0-6.373.26l-1.145 4.093a5.488 5.488 0 0 0-2.046.099l-2.473.613a.5.5 0 0 0-.365.606.489.489 0 0 0 .092.185l1.963 11.777a.5.5 0 0 0 .493.418h14a.5.5 0 0 0 .493-.418l2-12a.472.472 0 0 0-.002-.08.495.495 0 0 0-.004-.099ZM13.454 8.531a2.504 2.504 0 0 1 4.513-.198l1.506 4.256c-.042.016-.086.023-.128.04l-1.648.659a4.482 4.482 0 0 1-3.334.004l-1.686-.67c-.11-.044-.224-.069-.336-.105Zm9.154 16.462H9.455L7.598 13.852l1.964-.487a4.467 4.467 0 0 1 1.534-.102l-.504 1.803a1.49 1.49 0 1 0 1.025.046l.456-1.634c.078.026.158.042.235.073l1.686.67a5.482 5.482 0 0 0 4.074-.005l1.648-.658c.03-.012.06-.017.09-.028l.573 1.618a1.499 1.499 0 1 0 1.024-.103l-.623-1.756a4.464 4.464 0 0 1 1.698.08l1.984.497Zm-11.577-9a.5.5 0 1 1-.5.5.5.5 0 0 1 .5-.5Zm10 0a.5.5 0 1 1-.5.5.5.5 0 0 1 .5-.5Z"/><path fill="#231f20" d="M21.031 21.993h-3a.5.5 0 0 0 0 1h3a.5.5 0 0 0 0-1Z"/></svg>